HIERARCHY
ROOT root
{
	OFFSET	0	13.1	24.9
	CHANNELS 6  Xposition Yposition Zposition Xrotation Yrotation Zrotation
	JOINT spine_1
	{
		OFFSET	0	9.99999	0
		CHANNELS 3  Xrotation Yrotation Zrotation
		JOINT spine_2
		{
			OFFSET	0	112	-10
			CHANNELS 3  Xrotation Yrotation Zrotation
			JOINT spine_3
			{
				OFFSET	0	206.5	19.3
				CHANNELS 3  Xrotation Yrotation Zrotation
				JOINT spine_4
				{
					OFFSET	0	110.4	14.6
					CHANNELS 3  Xrotation Yrotation Zrotation
					JOINT neck_1
					{
						OFFSET	0	71.8	-50.3
						CHANNELS 3  Xrotation Yrotation Zrotation
						JOINT neck_2
						{
							OFFSET	0	86.2	-25.8
							CHANNELS 3  Xrotation Yrotation Zrotation
							JOINT head_ee
							{
								OFFSET	0	179.8	-8.7
								CHANNELS 3  Xrotation Yrotation Zrotation
								End Site
								{
									OFFSET	1	0	0
								}
							}
						}
					}
					JOINT left_clavicle
					{
						OFFSET	-43.2	22.4	-70.8
						CHANNELS 3  Xrotation Yrotation Zrotation
						JOINT left_shoulder
						{
							OFFSET	-93.9	-5.79999	48.7
							CHANNELS 3  Xrotation Yrotation Zrotation
							JOINT left_elbow
							{
								OFFSET	-291.4	-30.8	15.2
								CHANNELS 3  Xrotation Yrotation Zrotation
								JOINT left_lowarm_twist
								{
									OFFSET	-110.7	-3.89999	13.6
									CHANNELS 3  Xrotation Yrotation Zrotation
									JOINT left_hand
									{
										OFFSET	-110.7	-3.89999	13.6
										CHANNELS 3  Xrotation Yrotation Zrotation
										JOINT left_ee
										{
											OFFSET	-80.8	-5.10001	12.1
											CHANNELS 3  Xrotation Yrotation Zrotation
											End Site
											{
												OFFSET	1	0	0
											}
										}
									}
								}
							}
						}
					}
					JOINT right_clavicle
					{
						OFFSET	43.2	22.4	-70.8
						CHANNELS 3  Xrotation Yrotation Zrotation
						JOINT right_shoulder
						{
							OFFSET	93.9	-5.79999	48.7
							CHANNELS 3  Xrotation Yrotation Zrotation
							JOINT right_elbow
							{
								OFFSET	291.4	-30.8	15.2
								CHANNELS 3  Xrotation Yrotation Zrotation
								JOINT right_lowarm_twist
								{
									OFFSET	110.7	-3.89999	13.6
									CHANNELS 3  Xrotation Yrotation Zrotation
									JOINT right_hand
									{
										OFFSET	110.7	-3.89999	13.6
										CHANNELS 3  Xrotation Yrotation Zrotation
										JOINT right_ee
										{
											OFFSET	80.8	-5.10001	12.1
											CHANNELS 3  Xrotation Yrotation Zrotation
											End Site
											{
												OFFSET	1	0	0
											}
										}
									}
								}
							}
						}
					}
				}
			}
		}
	}
	JOINT left_hip
	{
		OFFSET	-82.8	-127.5	0.300001
		CHANNELS 3  Xrotation Yrotation Zrotation
		JOINT left_knee
		{
			OFFSET	-28.2	-396.7	2.2
			CHANNELS 3  Xrotation Yrotation Zrotation
			JOINT left_ankle
			{
				OFFSET	-11.7	-411.3	35.4
				CHANNELS 3  Xrotation Yrotation Zrotation
				JOINT left_toes
				{
					OFFSET	0	-60	-88.6
					CHANNELS 3  Xrotation Yrotation Zrotation
					JOINT left_foot_ee
					{
						OFFSET	-22.5	-16.5	-42.2
						CHANNELS 3  Xrotation Yrotation Zrotation
						End Site
						{
							OFFSET	1	0	0
						}
					}
				}
			}
		}
	}
	JOINT right_hip
	{
		OFFSET	82.8	-127.5	0.300001
		CHANNELS 3  Xrotation Yrotation Zrotation
		JOINT right_knee
		{
			OFFSET	28.2	-396.7	2.2
			CHANNELS 3  Xrotation Yrotation Zrotation
			JOINT right_ankle
			{
				OFFSET	11.7	-411.3	35.4
				CHANNELS 3  Xrotation Yrotation Zrotation
				JOINT right_toes
				{
					OFFSET	0	-60	-88.6
					CHANNELS 3  Xrotation Yrotation Zrotation
					JOINT right_foot_ee
					{
						OFFSET	22.5	-16.5	-42.2
						CHANNELS 3  Xrotation Yrotation Zrotation
						End Site
						{
							OFFSET	1	0	0
						}
					}
				}
			}
		}
	}
}
MOTION
Frames: 15
Frame Time: 0.02
1372.05 701.618 -1475.22 -2.91652753555 34.4002454675 1.99196777571 0.292851 -0.265929 -2.32093 0.29584 -0.117745 -2.33314 0.301878 0.363266 -2.30771 0.294446 -0.00564863 -2.3361 -8.73409 13.8517 -0.449987 -8.86876 26.2746 2.81003 -0.0 0.0 -0.0 9.7583 -0.91555 19.1955 -4.69046 -12.5606 49.8799 2.05607 -45.5202 0.862683 5.91692 0.170576 -0.73622 0.642823 -1.79759 3.55378 -0.0 0.0 -0.0 4.7127 -1.68969 -9.16075 -32.7047 24.3076 -54.7453 0.658884 18.0763 -0.104808 19.8374 -0.267308 2.50732 1.45289 -17.1755 -16.0601 0.0 0.0 0.0 -11.9018 10.2127 9.23917 -13.7427 0.317694 2.08003 20.3736 20.8262 -2.85838 -21.2544 0.0 0.0 -0.0 0.0 -0.0 39.6109 16.061 -6.87104 -16.7861 -0.320057 -2.54692 20.9733 -22.9923 2.96443 30.4902 -0.0 -0.0 0.0 0.0 0.0 
1353.13976998 701.743 -1500.01133537 -2.81290994833 35.2502545843 1.60473242021 0.129302 -0.159806 -2.06137 0.131665 -0.0283411 -2.06736 0.133693 0.402232 -2.02806 0.127962 0.0769606 -2.06612 -8.3009 13.0608 -0.915019 -8.38624 25.0697 2.05913 -0.0 0.0 -0.0 9.84994 0.29917 19.3313 -5.84615 -11.9343 50.893 1.9927 -44.6238 0.817819 4.85155 0.145495 -0.60244 1.15007 -8.93123 3.97514 -0.0 0.0 -0.0 4.68136 -1.94123 -9.10906 -31.9793 24.6912 -54.7201 0.72615 19.7843 -0.126633 20.1334 -0.264683 2.54503 1.57622 -15.7675 -16.3908 0.0 0.0 0.0 -10.9946 9.19635 8.58099 -18.9207 0.30692 2.87414 11.6624 21.6465 -1.69735 -20.7878 0.0 0.0 -0.0 0.0 -0.0 39.409 16.0096 -7.00573 -19.7373 -0.298672 -2.99917 25.3701 -21.1646 3.48465 32.7979 -0.0 -0.0 0.0 0.0 0.0 
1353.36156428 701.743 -1500.1789559 -2.795412989 34.7400032078 1.57422400108 0.129302 -0.159806 -2.06137 0.131665 -0.0283411 -2.06736 0.133693 0.402232 -2.02806 0.127962 0.0769606 -2.06612 -8.3009 13.0608 -0.915019 -8.38624 25.0697 2.05913 -0.0 0.0 -0.0 9.84994 0.29917 19.3313 -5.84615 -11.9343 50.893 1.9927 -44.6238 0.817819 4.85155 0.145495 -0.60244 1.15007 -8.93123 3.97514 -0.0 0.0 -0.0 4.68136 -1.94123 -9.10906 -31.9793 24.6912 -54.7201 0.72615 19.7843 -0.126633 20.1334 -0.264683 2.54503 1.57622 -15.7675 -16.3908 0.0 0.0 0.0 -10.9946 9.19635 8.58099 -18.9207 0.30692 2.87414 11.6624 21.6465 -1.69735 -20.7878 0.0 0.0 -0.0 0.0 -0.0 39.409 16.0096 -7.00573 -19.7373 -0.298672 -2.99917 25.3701 -21.1646 3.48465 32.7979 -0.0 -0.0 0.0 0.0 0.0 
1353.6216479 701.743 -1500.37159931 -2.77559068199 34.1459585631 1.53917708179 0.129302 -0.159806 -2.06137 0.131665 -0.0283411 -2.06736 0.133693 0.402232 -2.02806 0.127962 0.0769606 -2.06612 -8.3009 13.0608 -0.915019 -8.38624 25.0697 2.05913 -0.0 0.0 -0.0 9.84994 0.29917 19.3313 -5.84615 -11.9343 50.893 1.9927 -44.6238 0.817819 4.85155 0.145495 -0.60244 1.15007 -8.93123 3.97514 -0.0 0.0 -0.0 4.68136 -1.94123 -9.10906 -31.9793 24.6912 -54.7201 0.72615 19.7843 -0.126633 20.1334 -0.264683 2.54503 1.57622 -15.7675 -16.3908 0.0 0.0 0.0 -10.9946 9.19635 8.58099 -18.9207 0.30692 2.87414 11.6624 21.6465 -1.69735 -20.7878 0.0 0.0 -0.0 0.0 -0.0 39.409 16.0096 -7.00573 -19.7373 -0.298672 -2.99917 25.3701 -21.1646 3.48465 32.7979 -0.0 -0.0 0.0 0.0 0.0 
1313.16145828 700.08 -1556.36964251 -1.00365075575 36.1370190985 0.423566721252 -0.0148334 -0.116116 -1.68257 -0.0132583 -0.0088293 -1.68655 -0.012283 0.346289 -1.65065 -0.0160762 0.0812926 -1.68461 -6.62038 12.8446 0.41315 -6.59764 23.5442 2.96662 -0.0 0.0 -0.0 8.88884 3.91045 17.2177 -9.59446 -10.5267 53.5513 1.83624 -42.2862 0.710184 3.91164 0.121304 -0.484814 1.38654 -10.319 4.97872 -0.0 0.0 -0.0 5.38193 -1.21313 -10.4364 -30.6324 24.9882 -55.0443 0.67532 18.4969 -0.109965 19.8987 -0.266781 2.51512 1.26556 -17.7311 -15.0533 0.0 0.0 0.0 -12.4945 3.89324 8.43491 -24.0423 0.225793 3.65558 7.35163 22.6553 -1.08933 -18.6617 0.0 0.0 -0.0 0.0 -0.0 37.2559 15.8856 -8.83313 -29.28 -0.070968 -4.44423 27.8305 -23.5266 3.82089 37.1877 -0.0 -0.0 0.0 0.0 0.0 
1289.53186351 703.157 -1582.59302637 0.158095280133 37.4912330611 -0.115141570271 -0.0720166 -0.232152 -1.65586 -0.0704999 -0.12633 -1.66727 -0.0660079 0.228866 -1.65631 -0.0698349 -0.0355522 -1.67167 -3.32483 11.7711 -0.706092 -3.12138 22.0008 1.00626 -0.0 0.0 -0.0 8.02667 6.03522 15.4493 -11.5719 -10.0692 56.1445 1.73044 -40.6 0.640151 2.85215 0.0917234 -0.35271 1.66652 -8.45461 7.68463 -0.0 0.0 -0.0 5.77146 -0.122675 -11.1717 -29.7785 24.9938 -55.3161 0.58609 16.1898 -0.0833606 19.4704 -0.270293 2.46053 1.15647 -18.864 -14.7425 0.0 0.0 0.0 -11.4493 2.62557 7.58496 -27.6928 0.125499 4.20674 2.10449 23.9378 -0.318101 -18.7602 0.0 0.0 -0.0 0.0 -0.0 34.9837 18.8471 -10.4604 -31.7347 0.0262785 -4.80835 27.8073 -25.1574 3.85335 38.5452 -0.0 -0.0 0.0 0.0 0.0 
1272.98495365 708.546 -1604.81924429 1.25378225152 35.4664099005 -0.881544446823 -0.112828 0.0446779 -1.39854 -0.11175 0.133571 -1.39287 -0.114587 0.426091 -1.33281 -0.117004 0.210272 -1.38337 -3.39713 11.392 -0.17774 -3.22346 20.9107 1.51363 -0.0 0.0 -0.0 7.75211 7.3903 14.8701 -14.49 -9.71396 56.7757 1.65576 -39.356 0.592168 2.53592 0.0824217 -0.313387 1.53894 -8.82999 6.65516 -0.0 0.0 -0.0 6.22415 1.24775 -12.0404 -28.4071 25.3879 -55.1422 0.606152 16.7136 -0.0890424 19.45 -0.270449 2.45794 1.04087 -19.334 -14.1789 0.0 0.0 0.0 -8.49496 -1.06992 7.97889 -33.3876 -0.100523 5.05109 2.14422 23.9802 -0.324143 -19.0692 0.0 0.0 -0.0 0.0 -0.0 32.1762 20.0471 -11.4755 -31.7474 0.0268219 -4.81022 26.8291 -24.4346 3.72018 39.1723 -0.0 -0.0 0.0 0.0 0.0 
1253.08963732 714.607 -1630.28698604 1.50773135246 35.3941420611 -0.680758008247 -0.204694 0.194856 -1.26935 -0.203839 0.275227 -1.25438 -0.209632 0.537086 -1.16653 -0.211364 0.346129 -1.2367 -2.75339 10.7231 0.979756 -2.59954 18.7132 2.52516 -0.0 0.0 -0.0 7.21256 9.25049 13.7952 -16.4355 -9.29403 57.8658 1.56853 -37.8447 0.537741 1.7873 0.0595362 -0.220505 1.45865 -6.60468 7.05944 -0.0 0.0 -0.0 6.78301 3.14027 -13.1319 -26.4089 25.633 -54.6606 0.593276 16.3778 -0.0853755 19.1431 -0.272702 2.41879 0.815583 -19.9043 -12.9821 0.0 0.0 0.0 -7.06592 -2.4314 6.94569 -37.546 -0.318075 5.65166 1.73003 23.9237 -0.261714 -18.7663 0.0 0.0 -0.0 0.0 -0.0 30.1589 22.8799 -13.1204 -30.6616 -0.0181585 -4.64966 25.4133 -26.0403 3.58136 39.7664 -0.0 -0.0 0.0 0.0 0.0 
1236.10561808 717.063 -1647.79302623 2.03456226316 34.3095405899 -1.35145151586 -0.36698 0.302844 -1.02655 -0.366468 0.367549 -1.00521 -0.372856 0.576553 -0.901737 -0.373736 0.426912 -0.981468 -2.41268 10.5946 1.09311 -2.25403 18.3454 2.57947 -0.0 0.0 -0.0 6.63464 9.88618 12.7327 -19.116 -9.90364 59.1507 1.50753 -36.7494 0.500775 1.17252 0.0398345 -0.144452 1.61249 -5.93158 8.39152 -0.0 0.0 -0.0 7.22122 4.78481 -14.0008 -24.8868 25.7588 -54.1391 0.579944 16.0288 -0.0816552 19.5457 -0.269704 2.47014 0.833121 -20.2884 -13.2197 0.0 0.0 0.0 -4.65589 -3.17871 6.79013 -42.359 -0.623626 6.32532 2.10824 24.2064 -0.319087 -18.5829 0.0 0.0 -0.0 0.0 -0.0 28.1238 22.673 -12.7015 -30.8915 -0.0088881 -4.68373 22.9732 -26.4763 3.28225 39.4837 -0.0 -0.0 0.0 0.0 0.0 
1225.98295883 718.646 -1659.2363755 2.36425089365 34.0482214391 -1.74341041025 -0.406456 0.221058 -0.875664 -0.406072 0.276328 -0.859825 -0.410148 0.456498 -0.779277 -0.410846 0.327701 -0.841588 -2.0968 10.1707 1.18975 -1.94457 17.4579 2.58468 -0.0 0.0 -0.0 6.49932 10.6335 12.4679 -20.2707 -9.02627 60.3577 1.45663 -35.811 0.470655 1.00284 0.0342531 -0.123499 1.46594 -4.60607 7.95008 -0.0 0.0 -0.0 7.65875 5.85362 -14.8897 -23.1201 26.1483 -53.1575 0.577966 15.9769 -0.0811098 19.1538 -0.272627 2.42017 0.626061 -20.5113 -12.0349 0.0 0.0 0.0 -2.70726 -3.73577 6.11149 -45.8469 -0.880004 6.7966 2.00363 23.9244 -0.302909 -18.4829 0.0 0.0 -0.0 0.0 -0.0 26.8154 23.8247 -12.4054 -30.5882 -0.0210887 -4.63878 21.8981 -26.9629 3.15282 39.7816 -0.0 -0.0 0.0 0.0 0.0 
1188.06303409 727.919 -1681.89773595 2.42690907932 37.7970688625 -1.04852515336 -0.521406 -0.105624 -0.406759 -0.521317 -0.0795271 -0.412656 -0.520674 0.012797 -0.420054 -0.520916 -0.0537027 -0.416804 -3.90315 9.25246 2.81474 -3.82509 14.7622 4.3492 -0.0 0.0 -0.0 6.47849 11.5324 12.4003 -23.1663 -8.90016 61.5658 1.09769 -28.535 0.279144 1.14766 0.0390208 -0.141381 1.2663 -3.01814 7.25444 -0.0 0.0 -0.0 8.70309 10.8998 -16.996 -19.0884 27.6747 -52.0355 0.640794 17.6111 -0.0992648 20.3397 -0.262737 2.57131 0.374729 -24.3039 -11.8472 0.0 0.0 0.0 0.166133 -6.74133 2.57618 -49.1942 -1.15272 7.23367 0.195537 21.867 -0.0294098 -19.9405 0.0 0.0 -0.0 0.0 -0.0 23.1079 23.816 -12.6129 -28.5198 -0.0979103 -4.33066 19.4812 -27.9233 2.85056 39.0837 -0.0 -0.0 0.0 0.0 0.0 
1196.2241897 727.919 -1688.88369508 2.35772242382 35.5744294019 -0.932738997012 -0.521406 -0.105624 -0.406759 -0.521317 -0.0795271 -0.412656 -0.520674 0.012797 -0.420054 -0.520916 -0.0537027 -0.416804 -3.90315 9.25246 2.81474 -3.82509 14.7622 4.3492 -0.0 0.0 -0.0 6.47849 11.5324 12.4003 -23.1663 -8.90016 61.5658 1.09769 -28.535 0.279144 1.14766 0.0390208 -0.141381 1.2663 -3.01814 7.25444 -0.0 0.0 -0.0 8.70309 10.8998 -16.996 -19.0884 27.6747 -52.0355 0.640794 17.6111 -0.0992648 20.3397 -0.262737 2.57131 0.374729 -24.3039 -11.8472 0.0 0.0 0.0 0.166133 -6.74133 2.57618 -49.1942 -1.15272 7.23367 0.195537 21.867 -0.0294098 -19.9405 0.0 0.0 -0.0 0.0 -0.0 23.1079 23.816 -12.6129 -28.5198 -0.0979103 -4.33066 19.4812 -27.9233 2.85056 39.0837 -0.0 -0.0 0.0 0.0 0.0 
1188.62658915 729.146 -1706.3599462 3.71469418565 34.972709227 -1.70789766914 -0.611469 0.0628789 -0.332334 -0.611411 0.0838987 -0.32766 -0.611873 0.154117 -0.301078 -0.611985 0.104633 -0.321639 -5.86777 9.14102 3.79124 -5.81724 14.097 5.52056 -0.0 0.0 -0.0 6.52882 11.5316 12.488 -24.4117 -8.83162 62.1152 0.968572 -25.6313 0.220338 1.16417 0.0395613 -0.14342 1.24364 -1.43254 7.75321 -0.0 0.0 -0.0 9.25116 12.854 -18.1251 -16.6628 28.1887 -51.0943 0.635861 17.4838 -0.0977775 21.2067 -0.253528 2.68167 0.264894 -25.4658 -11.6114 0.0 0.0 0.0 3.23651 -4.87817 3.68348 -51.4445 -1.35029 7.51838 -2.22913 21.2973 0.336218 -20.7619 0.0 0.0 -0.0 0.0 -0.0 21.3443 23.2929 -12.7257 -30.1135 -0.0397025 -4.56832 17.5747 -28.2709 2.59668 38.7365 -0.0 -0.0 0.0 0.0 0.0 
1175.01829907 737.043 -1720.95155567 4.15425176314 36.2014992141 -2.53933305391 -0.605622 0.0897633 0.00454972 -0.605627 0.0892919 0.0102524 -0.605613 0.0848336 0.0296887 -0.605603 0.0884577 0.0159182 -7.38748 8.23753 3.78554 -7.36244 12.629 5.48288 -0.0 0.0 -0.0 6.51982 11.5634 12.4712 -25.5725 -8.61262 61.975 0.874056 -23.4115 0.181103 1.03463 0.0353033 -0.127423 1.21306 -0.271557 8.01955 -0.0 0.0 -0.0 9.56125 14.5732 -18.7396 -14.4246 28.8679 -50.114 0.689076 18.8473 -0.114369 21.7661 -0.2467 2.7528 0.175761 -26.2439 -11.3711 0.0 0.0 0.0 5.76803 -2.56078 3.86252 -52.351 -1.43303 7.63087 -4.06159 20.7062 0.613369 -21.3653 0.0 0.0 -0.0 0.0 -0.0 19.6967 23.8128 -11.6951 -30.672 -0.0177411 -4.65121 16.3183 -28.5168 2.42633 38.4611 -0.0 -0.0 0.0 0.0 0.0 
1165.28673444 741.06 -1740.10283996 6.59623976609 37.4884333469 -4.15522667556 -0.861038 0.242639 0.0993437 -0.861063 0.235826 0.114582 -0.860591 0.204027 0.16467 -0.860557 0.227473 0.130381 -10.5975 6.74039 3.38083 -10.6094 10.4689 5.02194 -0.0 0.0 -0.0 6.42689 11.529 12.3105 -26.4536 -7.8686 61.6652 0.806967 -21.7888 0.155318 0.968376 0.033112 -0.119245 1.03055 1.95521 7.68955 -0.0 0.0 -0.0 9.19473 15.5357 -17.886 -13.1216 29.0022 -50.1 0.827289 22.2844 -0.162943 22.8753 -0.231109 2.89363 -0.191182 -26.2456 -9.29407 0.0 0.0 0.0 21.3914 -0.148779 -5.41529 -64.0972 -2.65827 8.96082 -6.30053 13.5678 0.9375 -22.7635 0.0 0.0 -0.0 0.0 -0.0 13.1496 23.217 -10.3183 -26.0655 -0.174549 -3.96182 16.6115 -26.435 2.43483 37.2714 -0.0 -0.0 0.0 0.0 0.0 
